<svg width="400" height="400" viewBox="0 0 400 400" fill="none" xmlns="http://www.w3.org/2000/svg">
  <circle cx="200" cy="200" r="20" fill="white" />
  <circle cx="100" cy="100" r="10" fill="white" />
  <circle cx="300" cy="100" r="10" fill="white" />
  <circle cx="100" cy="300" r="10" fill="white" />
  <circle cx="300" cy="300" r="10" fill="white" />
  <circle cx="150" cy="150" r="8" fill="white" />
  <circle cx="250" cy="150" r="8" fill="white" />
  <circle cx="150" cy="250" r="8" fill="white" />
  <circle cx="250" cy="250" r="8" fill="white" />
  <circle cx="200" cy="100" r="8" fill="white" />
  <circle cx="100" cy="200" r="8" fill="white" />
  <circle cx="300" cy="200" r="8" fill="white" />
  <circle cx="200" cy="300" r="8" fill="white" />
  <circle cx="350" cy="150" r="6" fill="white" />
  <circle cx="350" cy="250" r="6" fill="white" />
  <circle cx="50" cy="150" r="6" fill="white" />
  <circle cx="50" cy="250" r="6" fill="white" />
  <circle cx="150" cy="50" r="6" fill="white" />
  <circle cx="250" cy="50" r="6" fill="white" />
  <circle cx="150" cy="350" r="6" fill="white" />
  <circle cx="250" cy="350" r="6" fill="white" />
  
  <!-- Lines connecting nodes -->
  <line x1="200" y1="200" x2="100" y2="100" stroke="white" stroke-width="2" />
  <line x1="200" y1="200" x2="300" y2="100" stroke="white" stroke-width="2" />
  <line x1="200" y1="200" x2="100" y2="300" stroke="white" stroke-width="2" />
  <line x1="200" y1="200" x2="300" y2="300" stroke="white" stroke-width="2" />
  <line x1="200" y1="200" x2="150" y2="150" stroke="white" stroke-width="2" />
  <line x1="200" y1="200" x2="250" y2="150" stroke="white" stroke-width="2" />
  <line x1="200" y1="200" x2="150" y2="250" stroke="white" stroke-width="2" />
  <line x1="200" y1="200" x2="250" y2="250" stroke="white" stroke-width="2" />
  <line x1="200" y1="200" x2="200" y2="100" stroke="white" stroke-width="2" />
  <line x1="200" y1="200" x2="100" y2="200" stroke="white" stroke-width="2" />
  <line x1="200" y1="200" x2="300" y2="200" stroke="white" stroke-width="2" />
  <line x1="200" y1="200" x2="200" y2="300" stroke="white" stroke-width="2" />
  
  <!-- Additional connections -->
  <line x1="100" y1="100" x2="150" y2="150" stroke="white" stroke-width="1" />
  <line x1="300" y1="100" x2="250" y2="150" stroke="white" stroke-width="1" />
  <line x1="100" y1="300" x2="150" y2="250" stroke="white" stroke-width="1" />
  <line x1="300" y1="300" x2="250" y2="250" stroke="white" stroke-width="1" />
  <line x1="100" y1="100" x2="200" y2="100" stroke="white" stroke-width="1" />
  <line x1="300" y1="100" x2="200" y2="100" stroke="white" stroke-width="1" />
  <line x1="100" y1="300" x2="200" y2="300" stroke="white" stroke-width="1" />
  <line x1="300" y1="300" x2="200" y2="300" stroke="white" stroke-width="1" />
</svg> 